<svg width="71" height="71" viewBox="0 0 71 71" fill="none" xmlns="http://www.w3.org/2000/svg">
<path d="M67.7896 0H3.21133C1.44042 0 0 1.44042 0 3.21133V67.7896C0 69.5596 1.44042 71 3.21133 71H67.7896C69.5605 71 71 69.5596 71 67.7896V3.21133C71 1.44042 69.5605 0 67.7896 0ZM68.0815 67.7896C68.0815 67.9502 67.9502 68.0815 67.7896 68.0815H3.21133C3.04976 68.0815 2.91939 67.9502 2.91939 67.7896V64.5443H68.0815V67.7896ZM68.0815 61.6249H2.91939V57.9692H68.0815V61.6249ZM41.2727 29.6961L49.3662 31.5533L67.1497 55.0508H40.5658L26.4361 37.7483L31.9527 31.5836L41.2727 29.6961ZM35.2071 27.9463L41.3994 21.027L46.6231 27.9289L41.3112 26.7097L35.2071 27.9463ZM55.4997 34.8197L41.5876 16.4386L24.567 35.4587L20.5992 30.6013L14.9321 37.3177C14.4739 35.5927 14.2426 33.8117 14.2426 31.9976C14.2426 20.5698 23.5397 11.2727 34.9675 11.2727C46.3954 11.2727 55.6925 20.5698 55.6925 31.9976C55.6925 32.9451 55.6264 33.8879 55.4997 34.8197ZM20.5624 35.1713L26.7161 42.7058L20.422 41.5068L14.2206 42.6874L20.5624 35.1713ZM20.422 44.4776L29.5896 46.2246L36.7972 55.0508H3.78787L11.2342 46.2265L20.422 44.4776ZM68.0815 51.4437L57.8572 37.9356C58.3566 36.004 58.6109 34.01 58.6109 31.9976C58.6109 18.9604 48.0047 8.35424 34.9675 8.35424C21.9303 8.35424 11.3241 18.9604 11.3241 31.9976C11.3241 34.7371 11.7877 37.4123 12.7012 39.9617L2.91939 51.5539V3.21133C2.91939 3.04976 3.04976 2.91939 3.21133 2.91939H67.7896C67.9502 2.91939 68.0815 3.04976 68.0815 3.21133V51.4437Z" fill="white"/>
</svg>
