<svg width="206" height="206" viewBox="0 0 206 206" fill="none" xmlns="http://www.w3.org/2000/svg">
<path d="M196.685 0H9.31739C4.17924 0 0 4.17924 0 9.31739V196.685C0 201.821 4.17924 206 9.31739 206H196.685C201.823 206 206 201.821 206 196.685V9.31739C206 4.17924 201.823 0 196.685 0ZM197.532 196.685C197.532 197.151 197.151 197.532 196.685 197.532H9.31739C8.84859 197.532 8.47035 197.151 8.47035 196.685V187.269H197.532V196.685ZM197.532 178.799H8.47035V168.192H197.532V178.799ZM119.749 86.1605L143.232 91.549L194.829 159.725H117.698L76.702 109.523L92.7077 91.6369L119.749 86.1605ZM102.15 81.0836L120.117 61.0078L135.273 81.033L119.861 77.4957L102.15 81.0836ZM161.027 101.026L120.663 47.695L71.2788 102.88L59.7666 88.7869L43.324 108.274C41.9948 103.269 41.3236 98.1016 41.3236 92.8382C41.3236 59.6813 68.2982 32.7067 101.455 32.7067C134.612 32.7067 161.587 59.6813 161.587 92.8382C161.587 95.5871 161.395 98.3227 161.027 101.026ZM59.66 102.046L77.5144 123.907L59.2525 120.428L41.2597 123.854L59.66 102.046ZM59.2525 129.048L85.8515 134.117L106.764 159.725H10.9901L32.5949 134.122L59.2525 129.048ZM197.532 149.259L167.867 110.067C169.316 104.462 170.054 98.6769 170.054 92.8382C170.054 55.012 139.281 24.2391 101.455 24.2391C63.6288 24.2391 32.8559 55.012 32.8559 92.8382C32.8559 100.787 34.201 108.548 36.8514 115.945L8.47035 149.579V9.31739C8.47035 8.84859 8.84859 8.47035 9.31739 8.47035H196.685C197.151 8.47035 197.532 8.84859 197.532 9.31739V149.259Z" fill="#2E3C48"/>
</svg>
